<svg width="14" height="19" viewBox="0 0 14 19" fill="none" xmlns="http://www.w3.org/2000/svg">
<path d="M7.37629 0.304986C7.18876 0.109703 6.93445 0 6.66929 0C6.40412 0 6.14982 0.109703 5.96229 0.304986L0.305288 6.19769C0.209778 6.29378 0.133596 6.40873 0.0811869 6.53581C0.0287779 6.6629 0.00119157 6.79959 3.77564e-05 6.9379C-0.00111606 7.07621 0.0241859 7.21338 0.0744668 7.3414C0.124748 7.46941 0.199001 7.58572 0.292893 7.68352C0.386786 7.78133 0.498438 7.85867 0.621334 7.91105C0.744231 7.96343 0.87591 7.98978 1.00869 7.98858C1.14147 7.98738 1.27269 7.95864 1.39469 7.90405C1.5167 7.84946 1.62704 7.7701 1.71929 7.67061L5.66929 3.55603V17.3508C5.66929 17.6271 5.77465 17.892 5.96218 18.0874C6.14972 18.2827 6.40407 18.3925 6.66929 18.3925C6.9345 18.3925 7.18886 18.2827 7.37639 18.0874C7.56393 17.892 7.66929 17.6271 7.66929 17.3508V3.55603L11.6193 7.67061C11.8079 7.86036 12.0605 7.96535 12.3227 7.96298C12.5849 7.96061 12.8357 7.85106 13.0211 7.65792C13.2065 7.46479 13.3117 7.20352 13.314 6.9304C13.3162 6.65728 13.2154 6.39415 13.0333 6.19769L7.37629 0.304986Z" fill="#4CAF50"/>
</svg>
