<svg width="17" height="17" viewBox="0 0 17 17" fill="none" xmlns="http://www.w3.org/2000/svg">
<path d="M4.83333 0H11.8333C14.5 0 16.6667 2.16667 16.6667 4.83333V11.8333C16.6667 13.1152 16.1574 14.3446 15.251 15.251C14.3446 16.1574 13.1152 16.6667 11.8333 16.6667H4.83333C2.16667 16.6667 0 14.5 0 11.8333V4.83333C0 3.55145 0.509225 2.32208 1.41565 1.41565C2.32208 0.509225 3.55145 0 4.83333 0ZM4.66667 1.66667C3.87102 1.66667 3.10796 1.98274 2.54535 2.54535C1.98274 3.10796 1.66667 3.87102 1.66667 4.66667V12C1.66667 13.6583 3.00833 15 4.66667 15H12C12.7956 15 13.5587 14.6839 14.1213 14.1213C14.6839 13.5587 15 12.7956 15 12V4.66667C15 3.00833 13.6583 1.66667 12 1.66667H4.66667ZM12.7083 2.91667C12.9846 2.91667 13.2496 3.02641 13.4449 3.22176C13.6403 3.41711 13.75 3.68207 13.75 3.95833C13.75 4.2346 13.6403 4.49955 13.4449 4.6949C13.2496 4.89025 12.9846 5 12.7083 5C12.4321 5 12.1671 4.89025 11.9718 4.6949C11.7764 4.49955 11.6667 4.2346 11.6667 3.95833C11.6667 3.68207 11.7764 3.41711 11.9718 3.22176C12.1671 3.02641 12.4321 2.91667 12.7083 2.91667ZM8.33333 4.16667C9.4384 4.16667 10.4982 4.60565 11.2796 5.38705C12.061 6.16846 12.5 7.22826 12.5 8.33333C12.5 9.4384 12.061 10.4982 11.2796 11.2796C10.4982 12.061 9.4384 12.5 8.33333 12.5C7.22826 12.5 6.16846 12.061 5.38705 11.2796C4.60565 10.4982 4.16667 9.4384 4.16667 8.33333C4.16667 7.22826 4.60565 6.16846 5.38705 5.38705C6.16846 4.60565 7.22826 4.16667 8.33333 4.16667ZM8.33333 5.83333C7.67029 5.83333 7.03441 6.09672 6.56557 6.56557C6.09672 7.03441 5.83333 7.67029 5.83333 8.33333C5.83333 8.99637 6.09672 9.63226 6.56557 10.1011C7.03441 10.5699 7.67029 10.8333 8.33333 10.8333C8.99637 10.8333 9.63226 10.5699 10.1011 10.1011C10.5699 9.63226 10.8333 8.99637 10.8333 8.33333C10.8333 7.67029 10.5699 7.03441 10.1011 6.56557C9.63226 6.09672 8.99637 5.83333 8.33333 5.83333Z" fill="white"/>
</svg>
