<svg width="14" height="19" viewBox="0 0 14 19" fill="none" xmlns="http://www.w3.org/2000/svg">
<path d="M5.93768 18.0875C6.1252 18.2828 6.37951 18.3925 6.64468 18.3925C6.90984 18.3925 7.16415 18.2828 7.35168 18.0875L13.0087 12.1948C13.1042 12.0987 13.1804 11.9837 13.2328 11.8566C13.2852 11.7296 13.3128 11.5929 13.3139 11.4546C13.3151 11.3162 13.2898 11.1791 13.2395 11.0511C13.1892 10.923 13.115 10.8067 13.0211 10.7089C12.9272 10.6111 12.8155 10.5338 12.6926 10.4814C12.5697 10.429 12.4381 10.4027 12.3053 10.4039C12.1725 10.4051 12.0413 10.4338 11.9193 10.4884C11.7973 10.543 11.6869 10.6224 11.5947 10.7218L7.64468 14.8364V1.04164C7.64468 0.765371 7.53932 0.500418 7.35178 0.305067C7.16425 0.109716 6.90989 -2.86102e-05 6.64468 -2.86102e-05C6.37946 -2.86102e-05 6.12511 0.109716 5.93757 0.305067C5.75003 0.500418 5.64468 0.765371 5.64468 1.04164V14.8364L1.69468 10.7218C1.50607 10.5321 1.25347 10.4271 0.991276 10.4295C0.729079 10.4319 0.478266 10.5414 0.292858 10.7345C0.10745 10.9277 0.00228024 11.1889 1.90735e-06 11.4621C-0.00227642 11.7352 0.0985174 11.9983 0.280676 12.1948L5.93768 18.0875Z" fill="#F44336"/>
</svg>
