<svg width="23" height="22" viewBox="0 0 23 22" fill="none" xmlns="http://www.w3.org/2000/svg">
<path d="M20.75 21.75L12.875 14.1375C12.25 14.6208 11.5313 15.0035 10.7188 15.2854C9.90625 15.5674 9.04167 15.7083 8.125 15.7083C5.85417 15.7083 3.9325 14.9479 2.36 13.427C0.787501 11.9061 0.000833995 10.0485 6.61376e-07 7.85417C-0.000832672 5.65983 0.785834 3.80222 2.36 2.28133C3.93417 0.760445 5.85583 0 8.125 0C10.3942 0 12.3163 0.760445 13.8913 2.28133C15.4663 3.80222 16.2525 5.65983 16.25 7.85417C16.25 8.74028 16.1042 9.57604 15.8125 10.3615C15.5208 11.1469 15.125 11.8417 14.625 12.4458L22.5 20.0583L20.75 21.75ZM8.125 13.2917C9.6875 13.2917 11.0158 12.7632 12.11 11.7063C13.2042 10.6494 13.7508 9.36539 13.75 7.85417C13.7492 6.34294 13.2025 5.05929 12.11 4.00321C11.0175 2.94713 9.68917 2.41828 8.125 2.41667C6.56083 2.41506 5.23292 2.9439 4.14125 4.00321C3.04958 5.06251 2.5025 6.34617 2.5 7.85417C2.4975 9.36217 3.04458 10.6462 4.14125 11.7063C5.23792 12.7664 6.56583 13.2949 8.125 13.2917Z" fill="white"/>
</svg>
