<svg width="22" height="22" viewBox="0 0 22 22" fill="none" xmlns="http://www.w3.org/2000/svg">
<path d="M20.0583 21.75L12.4458 14.1375C11.8417 14.6208 11.1469 15.0035 10.3615 15.2854C9.57604 15.5674 8.74028 15.7083 7.85417 15.7083C5.65903 15.7083 3.80142 14.9479 2.28133 13.427C0.761251 11.9061 0.000806195 10.0485 6.3933e-07 7.85417C-0.000804916 5.65983 0.759639 3.80222 2.28133 2.28133C3.80303 0.760445 5.66064 0 7.85417 0C10.0477 0 11.9057 0.760445 13.4282 2.28133C14.9507 3.80222 15.7108 5.65983 15.7083 7.85417C15.7083 8.74028 15.5674 9.57604 15.2854 10.3615C15.0035 11.1469 14.6208 11.8417 14.1375 12.4458L21.75 20.0583L20.0583 21.75ZM7.85417 13.2917C9.36458 13.2917 10.6486 12.7632 11.7063 11.7063C12.764 10.6494 13.2925 9.36539 13.2917 7.85417C13.2909 6.34294 12.7624 5.05929 11.7063 4.00321C10.6503 2.94713 9.3662 2.41828 7.85417 2.41667C6.34214 2.41506 5.05849 2.9439 4.00321 4.00321C2.94793 5.06251 2.41908 6.34617 2.41667 7.85417C2.41425 9.36217 2.9431 10.6462 4.00321 11.7063C5.06332 12.7664 6.34697 13.2949 7.85417 13.2917Z" fill="#343A40"/>
</svg>
