<svg width="17" height="17" viewBox="0 0 17 17" fill="none" xmlns="http://www.w3.org/2000/svg">
<path d="M8.33333 0C3.73333 0 0 3.73333 0 8.33333C0 12.9333 3.73333 16.6667 8.33333 16.6667C12.9333 16.6667 16.6667 12.9333 16.6667 8.33333C16.6667 3.73333 12.9333 0 8.33333 0ZM12.2 5.66667C12.075 6.98333 11.5333 10.1833 11.2583 11.6583C11.1417 12.2833 10.9083 12.4917 10.6917 12.5167C10.2083 12.5583 9.84167 12.2 9.375 11.8917C8.64167 11.4083 8.225 11.1083 7.51667 10.6417C6.69167 10.1 7.225 9.8 7.7 9.31667C7.825 9.19167 9.95833 7.25 10 7.075C10.0058 7.04849 10.005 7.02098 9.99776 6.99484C9.99049 6.9687 9.97696 6.94472 9.95833 6.925C9.90833 6.88333 9.84167 6.9 9.78333 6.90833C9.70833 6.925 8.54167 7.7 6.26667 9.23333C5.93333 9.45833 5.63333 9.575 5.36667 9.56667C5.06667 9.55833 4.5 9.4 4.075 9.25833C3.55 9.09167 3.14167 9 3.175 8.70833C3.19167 8.55833 3.4 8.40833 3.79167 8.25C6.225 7.19167 7.84167 6.49167 8.65 6.15833C10.9667 5.19167 11.4417 5.025 11.7583 5.025C11.825 5.025 11.9833 5.04167 12.0833 5.125C12.1667 5.19167 12.1917 5.28333 12.2 5.35C12.1917 5.4 12.2083 5.55 12.2 5.66667Z" fill="white"/>
</svg>
