<svg width="30" height="28" viewBox="0 0 30 28" fill="none" xmlns="http://www.w3.org/2000/svg">
<path d="M14.5835 26.25C21.8321 26.25 27.7085 20.1819 27.7085 16.0417C27.7085 11.9015 21.8321 5.83333 14.5835 5.83333C7.33485 5.83333 1.4585 11.9058 1.4585 16.0417C1.4585 20.1775 7.33485 26.25 14.5835 26.25Z" stroke="#495057" stroke-width="2.91667" stroke-linejoin="round"/>
<path d="M14.5835 20.4167C15.7438 20.4167 16.8566 19.9557 17.6771 19.1353C18.4976 18.3148 18.9585 17.202 18.9585 16.0417C18.9585 14.8813 18.4976 13.7685 17.6771 12.9481C16.8566 12.1276 15.7438 11.6667 14.5835 11.6667C13.4232 11.6667 12.3104 12.1276 11.4899 12.9481C10.6694 13.7685 10.2085 14.8813 10.2085 16.0417C10.2085 17.202 10.6694 18.3148 11.4899 19.1353C12.3104 19.9557 13.4232 20.4167 14.5835 20.4167Z" stroke="#495057" stroke-width="2.91667" stroke-linejoin="round"/>
<path d="M6.75537 4.56896L8.64683 7.20854M23.0603 4.89271L21.1681 7.53229M14.5903 1.45833V5.83333" stroke="#495057" stroke-width="2.91667" stroke-linecap="round"/>
</svg>
