<svg width="17" height="12" viewBox="0 0 17 12" fill="none" xmlns="http://www.w3.org/2000/svg">
<path d="M6.66667 8.33333L10.9917 5.83333L6.66667 3.33333V8.33333ZM16.3 1.80833C16.4083 2.2 16.4833 2.725 16.5333 3.39167C16.5917 4.05833 16.6167 4.63333 16.6167 5.13333L16.6667 5.83333C16.6667 7.65833 16.5333 9 16.3 9.85833C16.0917 10.6083 15.6083 11.0917 14.8583 11.3C14.4667 11.4083 13.75 11.4833 12.65 11.5333C11.5667 11.5917 10.575 11.6167 9.65833 11.6167L8.33333 11.6667C4.84167 11.6667 2.66667 11.5333 1.80833 11.3C1.05833 11.0917 0.575 10.6083 0.366667 9.85833C0.258333 9.46667 0.183333 8.94167 0.133333 8.275C0.0750001 7.60833 0.05 7.03333 0.05 6.53333L0 5.83333C0 4.00833 0.133333 2.66667 0.366667 1.80833C0.575 1.05833 1.05833 0.575 1.80833 0.366667C2.2 0.258333 2.91667 0.183333 4.01667 0.133333C5.1 0.0749999 6.09167 0.05 7.00833 0.05L8.33333 0C11.825 0 14 0.133333 14.8583 0.366667C15.6083 0.575 16.0917 1.05833 16.3 1.80833Z" fill="white"/>
</svg>
